<svg height="512" viewBox="0 0 512 512" width="512" xmlns="http://www.w3.org/2000/svg" xmlns:xlink="http://www.w3.org/1999/xlink"><linearGradient id="linear-gradient" gradientUnits="userSpaceOnUse" x1="340.395" x2="469.366" y1="245.366" y2="116.395"><stop offset="0" stop-color="#fbdf99"/><stop offset=".317" stop-color="#fbe09c"/><stop offset=".545" stop-color="#fbe3a5"/><stop offset=".745" stop-color="#fce8b5"/><stop offset=".928" stop-color="#fdefcb"/><stop offset="1" stop-color="#fdf2d6"/></linearGradient><linearGradient id="linear-gradient-2" x1="61.754" x2="152.485" xlink:href="#linear-gradient" y1="226.247" y2="135.515"/><linearGradient id="linear-gradient-3" gradientUnits="userSpaceOnUse" x1="128.282" x2="351.718" y1="318.184" y2="94.747"><stop offset="0" stop-color="#f9d270"/><stop offset=".368" stop-color="#f9d373"/><stop offset=".633" stop-color="#fad67c"/><stop offset=".864" stop-color="#fadb8c"/><stop offset="1" stop-color="#fbdf99"/></linearGradient><linearGradient id="linear-gradient-4" gradientUnits="userSpaceOnUse" x1="231.515" x2="280.485" y1="232.485" y2="183.515"><stop offset="0" stop-color="#f08c90"/><stop offset=".344" stop-color="#f08f93"/><stop offset=".592" stop-color="#f2989c"/><stop offset=".808" stop-color="#f4a8ab"/><stop offset="1" stop-color="#f7bdbf"/></linearGradient><linearGradient id="linear-gradient-5" gradientUnits="userSpaceOnUse" x1="131.32" x2="383.237" y1="462.986" y2="211.069"><stop offset="0" stop-color="#dfd2ee"/><stop offset=".414" stop-color="#e1d5ef"/><stop offset=".712" stop-color="#e8def2"/><stop offset=".972" stop-color="#f2eef8"/><stop offset="1" stop-color="#f4f0f9"/></linearGradient><linearGradient id="linear-gradient-6" gradientUnits="userSpaceOnUse" x1="127.925" x2="379.843" y1="459.592" y2="207.674"><stop offset="0" stop-color="#bfa4dd"/><stop offset=".353" stop-color="#c1a7de"/><stop offset=".606" stop-color="#c7b0e2"/><stop offset=".828" stop-color="#d2c0e7"/><stop offset="1" stop-color="#dfd2ee"/></linearGradient><linearGradient id="linear-gradient-7" gradientUnits="userSpaceOnUse" x1="195.202" x2="447.12" y1="526.869" y2="274.951"><stop offset="0" stop-color="#a986d2"/><stop offset=".356" stop-color="#ab89d3"/><stop offset=".611" stop-color="#b292d7"/><stop offset=".835" stop-color="#bda2dd"/><stop offset="1" stop-color="#c9b3e3"/></linearGradient><g id="_03-eggs" data-name="03-eggs"><g id="gradient"><path d="m489.112 136.192a11.993 11.993 0 0 0 -10.6-4.1l-128 16a12 12 0 0 0 -10.349 13.88l16 96a12 12 0 0 0 11.837 10.028c37 0 70.225-21.27 96.094-61.511a247.179 247.179 0 0 0 27.444-59.189 12 12 0 0 0 -2.426-11.108z" fill="url(#linear-gradient)"/><path d="m169.621 152.828a12 12 0 0 0 -8.133-4.735l-128-16a12 12 0 0 0 -13.026 15.2 247.133 247.133 0 0 0 27.444 59.192c25.869 40.245 59.094 61.515 96.094 61.515a12 12 0 0 0 11.837-10.027l16-96a12 12 0 0 0 -2.216-9.145z" fill="url(#linear-gradient-2)"/><path d="m374.694 132.647c-13.4-26.265-32.265-47.55-54.646-61.683l-38.825-46.641a12 12 0 0 0 -19.956 2.31l-8.555 17.109-36.227-36.227a12 12 0 0 0 -20.485 8.485v31.351l-32.205-10.735a12 12 0 0 0 -14.327 17.136l19.4 35.523c-33.26 32.495-52.868 82.068-52.868 134.725 0 45.452 14.248 88.294 40.12 120.633 26.499 33.125 61.971 51.367 99.88 51.367s73.381-18.242 99.88-51.367c25.872-32.339 40.12-75.181 40.12-120.633 0-32.441-7.367-64.031-21.306-91.353z" fill="url(#linear-gradient-3)"/><circle cx="204" cy="172" fill="#857a6b" r="12"/><circle cx="308" cy="172" fill="#857a6b" r="12"/><path d="m299.845 206.078a12 12 0 0 0 -6.479-8.811l-32-16a12 12 0 0 0 -10.733 0l-32 16a12 12 0 0 0 -3.118 19.218l32 32a12 12 0 0 0 16.97 0l32-32a12 12 0 0 0 3.36-10.407z" fill="url(#linear-gradient-4)"/><path d="m439.191 269.92a12 12 0 0 0 -16.838-8.586l-28.883 13.432-63.749-29.647a12.006 12.006 0 0 0 -10.121 0l-63.747 29.647-63.753-29.647a12 12 0 0 0 -10.121 0l-63.749 29.647-26.645-12.39a12 12 0 0 0 -16.846 8.63 240.554 240.554 0 0 0 -4.606 44.727c0 52.015 17.34 99.812 48.826 134.588 34.165 37.734 81.922 57.679 138.107 57.679s103.944-19.945 138.108-57.679c31.486-34.776 48.826-82.573 48.826-134.588a241.687 241.687 0 0 0 -4.809-45.813z" fill="url(#linear-gradient-5)"/><path d="m422.954 409.266c13.734-27.798 21.046-59.775 21.046-93.533a241.687 241.687 0 0 0 -4.809-45.813 12 12 0 0 0 -16.838-8.586l-28.883 13.432-63.749-29.647a12.006 12.006 0 0 0 -10.121 0l-63.747 29.647-63.753-29.647a12 12 0 0 0 -10.121 0l-63.749 29.647-26.645-12.39a12 12 0 0 0 -16.846 8.63 240.554 240.554 0 0 0 -4.606 44.727c0 33.278 7.109 64.822 20.467 92.342a271.987 271.987 0 0 1 332.354 1.191z" fill="url(#linear-gradient-6)"/><path d="m134.077 465.081c32.571 28.146 74.657 42.919 122.989 42.919 47.773 0 89.447-14.428 121.858-41.942a175.966 175.966 0 0 0 -244.847-.977z" fill="url(#linear-gradient-7)"/><g fill="#9f77cd"><path d="m244 310.461c.07-15.693 23.932-15.692 24 0-.07 15.693-23.932 15.692-24 0z"/><path d="m312 317.23c.07-15.693 23.932-15.692 24 0-.07 15.694-23.932 15.692-24 0z"/><path d="m380 340.23c.07-15.693 23.932-15.692 24 0-.07 15.694-23.932 15.692-24 0z"/><path d="m200 317.23c-.07-15.693-23.932-15.692-24 0 .07 15.694 23.932 15.692 24 0z"/><path d="m132 340.23c-.07-15.693-23.932-15.692-24 0 .07 15.694 23.932 15.692 24 0z"/></g></g></g></svg>