<svg height="512" viewBox="0 0 60 53" width="512" xmlns="http://www.w3.org/2000/svg"><g id="Page-1" fill="none" fill-rule="evenodd"><g id="002---Lawn-Mower" fill-rule="nonzero"><g id="Icons" transform="translate(1 7)"><path id="Shape" d="m31 38c-.0011704 2.4582631-1.2917466 4.7357505-3.4 6-1.0847815.6590307-2.3307301 1.0051276-3.6 1-2.2816469-.008016-4.4162078-1.127541-5.72-3-1.4628945-2.096229-1.6668278-4.8231929-.5319902-7.1136906 1.1348375-2.2904978 3.4279751-3.7802766 5.9819902-3.8863094.0897273-.009908.1802727-.009908.27 0 3.8659932 0 7 3.1340068 7 7z" fill="#7f8e94"/><path id="Shape" d="m29.38 33.53c-1.328336-1.6008216-3.2998313-2.5279374-5.38-2.53-.0897273-.009908-.1802727-.009908-.27 0-.4003621.0142154-.7986338.0644177-1.19.15 2.80164.62231 4.9395978 2.8916804 5.3938784 5.725421s-.8671602 5.6576918-3.3338784 7.124579c-.6535544.3894939-1.3662348.6698374-2.11.83.4962912.107573 1.0022136.1645311 1.51.17 1.2692699.0051276 2.5152185-.3409693 3.6-1 1.7492351-1.0515266 2.9524286-2.8141189 3.2945036-4.8262114.3420749-2.0120925-.2110406-4.0732741-1.5145036-5.6437886z" fill="#545c60"/><path id="Shape" d="m58 40c0 2.7614237-2.2385763 5-5 5-1.0840023.013523-2.140912-.3387803-3-1l-.15-.11c-1.180482-.9444298-1.8623847-2.3782685-1.85-3.89-.0061774-.6881469.1335594-1.3697898.41-2 .0603635-.1673134.1374187-.3281243.23-.48 1.1161708-1.9885366 3.4363905-2.9699352 5.6407049-2.3858861 2.2043143.5840491 3.7341908 2.5855586 3.7192951 4.8658861z" fill="#7f8e94"/><path id="Shape" d="m53 35c-.5191086.0033294-1.0348048.0842229-1.53.24 2.0675396.6647792 3.4695099 2.5882147 3.4695099 4.76s-1.4019703 4.0952208-3.4695099 4.76c.495022.1565153 1.0108303.2374264 1.53.24 2.7614237 0 5-2.2385763 5-5s-2.2385763-5-5-5z" fill="#545c60"/><path id="Shape" d="m50 44h-22.4c1.7492351-1.0515266 2.9524286-2.8141189 3.2945036-4.8262114.3420749-2.0120925-.2110406-4.0732741-1.5145036-5.6437886l3.62.87c3.89.93 10 2.38 14 3.3l1.41.32c-.2736851.6240474-.413362 1.2985843-.41 1.98-.0075462 1.5151307.6820225 2.9495812 1.87 3.89z" fill="#f44335"/><path id="Shape" d="m49.87 43.89c-1.1879775-.9404188-1.8775462-2.3748693-1.87-3.89-.0061774-.6881469.1335594-1.3697898.41-2l-1.41-.3c-4-.92-10.11-2.37-14-3.3l-3.62-.87c.229086.2710631.433247.5622436.61.87 3.89.93 10 2.38 14 3.3l1.41.32c-.2702512.62479-.4065153 1.2992975-.4 1.98-.0075462 1.5151307.6820225 2.9495812 1.87 3.89l.13.11h3z" fill="#c81e1e"/><path id="Shape" d="m49 26v4c0 .5522847-.4477153 1-1 1h-16c-.5522847 0-1-.4477153-1-1v-4z" fill="#9e9e9e"/><path id="Shape" d="m46 26v4c0 .5522847-.4477153 1-1 1h3c.5522847 0 1-.4477153 1-1v-4z" fill="#707070"/><path id="Shape" d="m49 26h-18v-2c0-1.1045695.8954305-2 2-2h8c3.147573 0 6.1114562 1.4819416 8 4z" fill="#f44335"/><path id="Shape" d="m41 22h-3c3.147573 0 6.1114562 1.4819416 8 4h3c-1.8885438-2.5180584-4.852427-4-8-4z" fill="#c81e1e"/><path id="Shape" d="m17 38c.0042705 1.431842.4475304 2.8279362 1.27 4-5.73-.05-11.82-1.68-15-6.83-2.27-3.61-2.67-8.08-2.33-12.24.22-2.57.63-5.72 3.24-7l19.54 15.07c-3.7562274.1503682-6.7230085 3.2407652-6.72 7z" fill="#f44335"/><path id="Shape" d="m2 9c-1.1045695 0-2-.8954305-2-2v-5c0-1.1045695.8954305-2 2-2s2 .8954305 2 2v5c0 1.1045695-.8954305 2-2 2z" fill="#f44335"/><path id="Shape" d="m47 31v6.7c-4-.92-10.11-2.37-14-3.3v-3.4z" fill="#607d8b"/><path id="Shape" d="m44 31v6l3 .7v-6.7z" fill="#37474f"/><circle id="Oval" cx="24" cy="38" fill="#607d8b" r="2"/></g><g id="Icons_copy"><g fill="#a4c400"><path id="Shape" d="m23 2h-1c-.5522847 0-1-.44771525-1-1s.4477153-1 1-1h1c.5522847 0 1 .44771525 1 1s-.4477153 1-1 1z"/><path id="Shape" d="m44.27 20.94c-.4736615.0126631-.8911882-.3088324-1-.77-.15-.64-.32-1.29-.51-1.92-.1300879-.3486659-.0558012-.7407289.1928185-1.0176387.2486198-.2769097.6304422-.3928558.9910584-.3009497.3606162.0919062.6403678.3764602.7261231.7385884.21.67.39 1.36.55 2 .1252036.535421-.2053656 1.0714792-.74 1.2zm-2-5.81c-.3846594-.0010889-.7345973-.2227162-.9-.57-.28-.6-.59-1.19-.91-1.76-.2761424-.4804877-.1104877-1.0938576.37-1.37s1.0938576-.1104877 1.37.37c.35.61.68 1.24 1 1.89.2173854.5026495-.0099729 1.0866484-.51 1.31-.1325197.0732722-.2790826.1175819-.43.13zm-3.27-5.21c-.304272-.00140277-.5913526-.14126257-.78-.38-.42-.51-.85-1-1.3-1.46-.1893127-.1877666-.2957983-.44336246-.2957983-.71s.1064856-.5222334.2957983-.71c.1877666-.18931265.4433625-.29579832.71-.29579832s.5222334.10648567.71.29579832c.48.51 1 1.05 1.41 1.61.345039.42613033.2825888 1.05063245-.14 1.4-.1692302.1498874-.3842538.23801183-.61.25zm-4.48-4.19c-.203908-.00048276-.4027955-.06328932-.57-.18-.54-.37-1.09-.71-1.66-1-.2321493-.12854811-.4036858-.34409709-.4768345-.5991798-.0731487-.25508272-.0419109-.52878022.0868345-.7608202.1285481-.23214933.3440971-.40368581.5991798-.47683453s.5287802-.04191086.7608202.08683453c.62.35 1.24.73 1.83 1.14.3577534.2497108.5123265.70253281.3819337 1.11887483-.1303929.41634201-.5156518.70009575-.9519337.70112517zm-5.52-2.73c-.0994311.01508534-.2005689.01508534-.3 0-.62-.19-1.25-.36-1.89-.49-.2602165-.0551486-.4877389-.21169759-.6322417-.4350201-.1445028-.22332252-.1940773-.49501418-.1377583-.7549799.1150218-.5372416.6419275-.88106993 1.18-.77.71.15 1.4.33 2.08.54.2605771.06981694.4818929.24195232.6137025.47732661s.1629305.51401878.0862975.77267339c-.1500511.41744662-.5571758.68614893-1 .66z"/><path id="Shape" d="m45 26c-.5296773.0009542-.9682202-.4112761-1-.94v-.5c0-.13 0-.29 0-.47-.0463658-.5457159.3548692-1.0271979.9-1.08.2654479-.0249745.5298782.0570888.7345475.2279595.2046694.1708707.3326289.416399.3554525.6820405v.52.49c.0192293.2653698-.0680874.5274621-.2426275.728277-.1745401.200815-.4219117.3237942-.6873725.341723z"/><path id="Shape" d="m21 6h-1c-.5522847 0-1-.44771525-1-1s.4477153-1 1-1h1.05c.5522847.01380713.9888071.47271526.975 1.025s-.4727153.9888071-1.025.975z"/><path id="Shape" d="m38.18 21c-.4648688.0159235-.8793359-.2907821-1-.74-.17-.63-.37-1.26-.59-1.87-.1877768-.5219091.0830909-1.0972232.605-1.285s1.0972232.0830909 1.285.605c.23.66.45 1.34.63 2 .1404156.5297792-.1717681 1.0738709-.7 1.22-.0728112.0345066-.1503106.0580934-.23.07zm-2.3-5.67c-.3685937-.0009835-.7067616-.2046528-.88-.53-.33-.57-.67-1.13-1-1.65-.3140152-.4530449-.2021954-1.0747628.25-1.39.2183199-.1539942.4891832-.2142241.7521891-.1672588.2630058.0469654.4962825.1972202.6478109.4172588.39.57.78 1.18 1.13 1.81.1327334.2317414.1672561.5069478.0958754.7642939-.0713807.2573462-.2427335.4754483-.4758754.6057061-.1604161.0832771-.3393135.1245611-.52.12zm-3.75-4.83c-.2512832.0018503-.4940522-.0909731-.68-.26-.4554294-.44488999-.9398227-.85912978-1.45-1.24-.2152922-.15612687-.3595264-.39158088-.400811-.65430113-.0412846-.26272026.0237813-.53106426.180811-.74569887.3245963-.44211827.9447379-.54027019 1.39-.22.5894257.41934649 1.1506365.8770006 1.68 1.37.3877236.39003745.3877236 1.01996255 0 1.41-.1825865.2081155-.443282.3312217-.72.34zm-5.13-3.25c-.1267923.00186202-.2526507-.02194901-.37-.07-.5973138-.23403609-1.2084699-.43107549-1.83-.59-.3465476-.09110273-.6181681-.36016607-.7125446-.70583648-.0943766-.34567041.0028289-.71543232.255-.97.252171-.25456768.620997-.35526625.9675446-.26416352.6950834.1856366 1.3794473.40930674 2.05.67.4452498.17593471.7033424.6427624.6155562 1.1133939s-.4968208.81302096-.9755562.8166061z"/><path id="Shape" d="m39 26c-.5333335.0006671-.9733337-.4173332-1-.95 0-.3 0-.62-.07-.95-.0278903-.2654886.0515274-.531108.2205699-.7377155.1690426-.2066076.4136759-.3370505.6794301-.3622845.2654886-.0278903.531108.0515274.7377155.2205699.2066076.1690426.3370505.4136759.3622845.6794301 0 .36.06.71.08 1 .0277753.273575-.0583293.5465155-.2380626.7546277-.1797333.2081123-.4372332.3330296-.7119374.3453723z"/><path id="Shape" d="m33 26c-.5296773.0009542-.9682202-.4112761-1-.94 0 0 0-.36-.1-.91-.0773198-.5522847.3077153-1.0626801.86-1.1399999.5522847-.0773199 1.0626801.3077152 1.14.8599999.09.67.12 1.06.12 1.06.0191594.2703051-.0722009.536813-.2531665.7385142-.1809656.2017013-.4360408.3213246-.7068335.3314858z"/><path id="Shape" d="m32 21.06c-.4508611.022062-.8606053-.2606615-1-.69-.2-.63-.42-1.24-.67-1.82-.2153911-.5108634.0241366-1.0996089.535-1.315s1.0996089.0241366 1.315.535c.26.64.51 1.3.73 2 .1536569.5096687-.1188939 1.0503744-.62 1.23-.0920203.0381016-.1904154.0584592-.29.06zm-2.67-5.43c-.3218574-.0014883-.6233242-.1578044-.81-.42-.3649879-.5112714-.7660071-.9958362-1.2-1.45-.2465133-.2590175-.3361167-.6298729-.2350576-.9728684.1010592-.3429956.3774276-.6060221.7250001-.69.3475724-.083978.7135442.0238508.9600575.2828684.4887888.5092144.9431272 1.0504116 1.36 1.62.1570297.2146346.2220956.4829786.180811.7456989-.0412846.2627202-.1855188.4981742-.400811.6543011-.1686372.1349925-.3744921.215241-.59.23zm-4.49-4c-.1641409-.0008202-.3255563-.0420326-.47-.12-.5475628-.2983199-1.1196499-.5492353-1.71-.75-.5219091-.182254-.797254-.7530909-.615-1.275.182254-.52190909.7530909-.79725397 1.275-.615.6889087.23993225 1.3576773.53419041 2 .88.4038258.21794807.6074884.6827729.4939677 1.127396-.1135208.444623-.5150873.7549213-.9739677.752604z"/><path id="Shape" d="m19 10h-.06c-.3 0-.62 0-.94 0-.5522847 0-1-.44771525-1-1s.4477153-1 1-1h1.06c.5522847.01656856.9865685.47771526.97 1.03-.0165686.55228474-.4777153.9865685-1.03.97z"/></g><path id="Shape" d="m54 41c-2.0161225.0059059-3.8944967 1.0239848-5 2.71v-4.71c1.1045695 0 2-.8954305 2-2v-4c.0018327-.1170907-.0220631-.233156-.07-.34 0 0 0 0 0-.06-.0199704-.0614334-.0504195-.1189484-.09-.17-2.0878518-2.7825091-5.3612888-4.4229305-8.84-4.43h-8c-1.6568542 0-3 1.3431458-3 3v3.68c-4.41-3.33-12-9.32-18-14.14v-5.54c0-.5522847-.4477153-1-1-1s-1 .4477153-1 1v3.94l-5.13-4.11c.08367025-.2688251.12746948-.5484663.13-.83v-5c-.00000002-1.65685423-1.34314577-2.99999996-3-2.99999996s-2.99999998 1.34314573-3 2.99999996v5c0 1.6568542 1.34314575 3 3 3 .61172415-.0014483 1.20838651-.189868 1.71-.54 5.5 4.43 20.4 16.36 26.31 20.73.0975291 1.022142.953231 1.8043746 1.98 1.81v1.13l-2.09-.5c-1.5001869-1.6567612-3.6250426-2.610408-5.86-2.63l-19.21-14.84-4.08-3.16c-.43660098-.3358001-1.06254326-.2553218-1.4.18-.16764184.2109453-.24306325.4806161-.20917913.7479241.03388411.267308.17420614.509631.38917913.6720759l3 2.27c-2.17 1.92-2.44 5.13-2.54 6.98-.48 5.15.34 9.52 2.41 12.86 3.59 5.79 10.24 7.18 15.38 7.29 2.4093517 3.035949 6.6619065 3.8822286 10.05 2h21.89c.9676473.6482736 2.1052746.9961719 3.27 1 3.3137085 0 6-2.6862915 6-6s-2.6862915-6-6-6zm-6.23 4.67.37.09c-.0866347.4078369-.1335207.8231133-.14 1.24.00187 1.0537794.2812395 2.0884811.81 3h-17.59c1.8398494-2.2430103 2.3042175-5.3132121 1.21-8 3.68.93 10.84 2.63 15.34 3.67zm1.23-8.67h-16v-3h16zm-16-6c0-.5522847.4477153-1 1-1h8c2.0565223.001567 4.0504828.7073937 5.65 2h-14.65zm-31-17v-5c0-.55228475.44771525-1 1-1s1 .44771525 1 1v5c0 .5522847-.44771525 1-1 1s-1-.4477153-1-1zm33 25h12v4.44c-3.67-.85-8.52-2-12-2.83zm-29.89 2.66c-1.83-3-2.57-6.89-2.17-11.65.19-2.23.54-4.67 2.18-5.87l17.24 13.31c-3.2094999 1.1219876-5.3592148 4.1500375-5.36 7.55.0032123 1.0285086.2034907 2.0468732.59 3-4.42-.34-9.59-1.75-12.48-6.34zm15 6.79-.08-.1c-1.2137274-1.7985829-1.361829-4.1123283-.3873201-6.0509791.974509-1.9386508 2.9197749-3.2001151 5.0873201-3.2990209.0897273.009908.1802727.009908.27 0 2.8458558-.0042288 5.3031868 1.9913018 5.8830465 4.7774598.5798597 2.7861579-.8772908 5.5963768-3.4885348 6.7278884-2.6112439 1.1315116-5.6581396.2729988-7.2945117-2.0553482zm33.89 2.55c-2.209139 0-4-1.790861-4-4s1.790861-4 4-4 4 1.790861 4 4-1.790861 4-4 4z" fill="#000"/><path id="Shape" d="m13.29 43.15c-1.6858964-.5146092-3.1797159-1.5209352-4.29-2.89-2-2.6-2.26-6.45-2.12-9.21.03037565-.5522847-.39271526-1.0246243-.945-1.055-.55228474-.0303756-1.02462433.3927153-1.055.945-.16 3.11.15 7.45 2.53 10.54 1.36083196 1.6649415 3.1841138 2.8897415 5.24 3.52.1019407.0399583.2105081.0603147.32.06.5522847.0883655 1.0716344-.2877153 1.16-.84.0883655-.5522847-.2877153-1.0716344-.84-1.16z" fill="#000"/><path id="Shape" d="m25 42c-1.6568542 0-3 1.3431458-3 3s1.3431458 3 3 3 3-1.3431458 3-3-1.3431458-3-3-3zm0 4c-.5522847 0-1-.4477153-1-1s.4477153-1 1-1 1 .4477153 1 1-.4477153 1-1 1z" fill="#000"/><circle id="Oval" cx="54" cy="47" fill="#000" r="1"/></g></g></g></svg>